<?xml version="1.0" encoding="utf-8"?>
<!-- Generator: Adobe Illustrator 25.2.0, SVG Export Plug-In . SVG Version: 6.00 Build 0)  -->
<svg version="1.1" xmlns="http://www.w3.org/2000/svg" xmlns:xlink="http://www.w3.org/1999/xlink" x="0px" y="0px"
	 viewBox="0 0 1600 1200" style="enable-background:new 0 0 1600 1200;" xml:space="preserve">
<style type="text/css">
	.st0{fill:#D7ECFF;}
	.st1{fill:#FFB085;}
	.st2{fill:#FEF1E6;}
	.st3{fill:#4D7199;}
	.st4{fill:#264663;}
	.st5{fill:#375A7A;}
	.st6{fill:#FFAD9F;}
	.st7{fill:none;stroke:#1D1D1B;stroke-width:2;stroke-linejoin:round;stroke-miterlimit:10;}
	.st8{fill:#AA4437;}
	.st9{fill:#F9D5A7;}
	.st10{fill:#CEA980;}
	.st11{fill:#BC7A5C;}
</style>
<g id="BACKGROUND">
	<path class="st0" d="M220.68,1148.69h1065.78c0,0,346.19,27.54,190.41-406.18S1358.16,86.2,1086.16,44.9
		c-93.97,0-195.35,50.49-289.32,190.47S309.7,508.79,220.68,596.97S-38.97,974.28,220.68,1148.69z"/>
</g>
<g id="STAR">
	<g>
		<path class="st1" d="M1324.4,198.89c0.17,55.66-35.06,103.12-84.45,121.15l-35.94,90.27c-1.78,4.47-8.12,4.44-9.86-0.05
			l-33.8-87.47c-53.67-15.43-92.93-64.89-92.93-123.51c0-70.52,56.82-127.76,127.17-128.48
			C1265.56,70.09,1324.19,127.92,1324.4,198.89z"/>
		<path class="st2" d="M1171.37,170.95l20.47-48.45c1.51-3.58,6.6-3.57,8.1,0.02l19.12,45.88c0.55,1.32,1.71,2.29,3.1,2.6
			l43.14,9.59c3.97,0.88,4.71,6.22,1.13,8.15l-37.17,20.05c-1.92,1.03-2.79,3.32-2.04,5.36l14.85,40.83c1.45,4-3.06,7.52-6.58,5.14
			l-36.9-24.9c-1.59-1.07-3.69-0.99-5.19,0.2l-30.83,24.48c-3.25,2.58-7.93-0.37-7.01-4.42l9.23-40.4c0.47-2.05-0.58-4.15-2.51-4.99
			l-37.9-16.71c-3.79-1.67-3.37-7.18,0.63-8.26l43.44-11.64C1169.77,173.13,1170.84,172.2,1171.37,170.95z"/>
	</g>
</g>
<g id="BOXES">
	<g>
		<g>
			<rect x="223.53" y="918.07" class="st3" width="157.36" height="230.96"/>
			<polygon class="st4" points="412.46,1149.04 380.89,1149.04 380.89,918.07 412.46,908.81 			"/>
			<polygon class="st5" points="380.89,918.07 223.53,918.07 273,906.06 412.46,908.81 			"/>
		</g>
		<g>
			<rect x="519" y="829.91" class="st3" width="157.36" height="320.5"/>
			<polygon class="st4" points="707.93,1150.41 676.35,1150.41 676.35,829.91 707.93,817.06 			"/>
			<polygon class="st5" points="676.35,829.91 519,829.91 568.47,813.25 707.93,817.06 			"/>
		</g>
		<g>
			<rect x="800" y="686.46" class="st3" width="157.36" height="468.64"/>
			<polygon class="st4" points="988.94,1155.1 957.36,1155.1 957.36,686.46 988.94,667.67 			"/>
			<polygon class="st5" points="957.36,686.46 800,686.46 848.53,667.67 988.94,667.67 			"/>
		</g>
		<g>
			<rect x="1101.44" y="516.06" class="st3" width="157.36" height="635.02"/>
			<polygon class="st4" points="1290.38,1151.08 1258.8,1151.08 1258.8,516.06 1290.38,490.59 			"/>
			<polygon class="st5" points="1258.8,516.06 1101.44,516.06 1147.52,490.59 1290.38,490.59 			"/>
		</g>
	</g>
</g>
<g id="MALE">
	<g>
		<g>
			<path class="st6" d="M527.56,472.7c-0.71,2.03-1.57,4.42-2.46,6.77c-0.97,2.56-2,5.07-2.91,6.98c0,0-9.99,7.88-21.38-2.1
				l0.06-0.16l5.63-15c1.67,0.88,3.48,1.54,5.47,1.95C517.14,472.2,522.42,472.83,527.56,472.7z"/>
			<path class="st6" d="M563.58,440.53c-6.35,24.32-20.56,31.76-36.02,32.17c-5.14,0.14-10.43-0.5-15.59-1.55
				c-1.99-0.41-3.8-1.07-5.47-1.95c-3.89-2.04-6.92-5.23-9.27-8.86c-7.13-10.97-8.1-25.99-8.1-25.99
				c-19.46,2.53-21.99-14.38-20.73-21.99c1.27-7.62,20.73,5.07,20.73,5.07c20.3-10.57,39.76-50.34,39.76-50.34
				c8.88,16.08,34.69,30.88,34.69,30.88S565.27,429.69,563.58,440.53z"/>
			<path d="M563.58,397.96c0,0-25.81-14.8-34.69-30.88c0,0-19.46,39.76-39.76,50.34c0,0-19.46-12.69-20.73-5.07
				c-1.27,7.62,1.27,24.53,20.73,21.99c0,0,0.97,15.02,8.1,25.99c-8.61-3.27-37.28-18.25-45.33-74.64
				c-1.48-15.86,42.31-44.62,75.3-39.97C560.19,350.38,574.37,365.39,563.58,397.96z"/>
			<ellipse cx="521.81" cy="414.88" rx="3.07" ry="7.83"/>
			<ellipse cx="548.78" cy="413.65" rx="3.07" ry="7.83"/>
			<path class="st7" d="M515.36,404.73c0.63,0,4.44-7.4,9.52-0.85"/>
			<path class="st7" d="M543.91,402.78c0,0,4.66-7.03,7.94,0"/>
			<path class="st7" d="M537.99,404.73l1.06,16.74c0,0,3.6-1.72,4.86,1.24c1.27,2.96,1.48,4.65-2.96,6.98"/>
			<path class="st8" d="M518.74,438.99l33.11-2.33c0,0,3.64,16.71-10.5,20.52C527.2,460.99,517.68,449.36,518.74,438.99z"/>
		</g>
		<g>
			<path class="st6" d="M717.9,367.79c0,0,9.7,12.36,1.13,20.37c-6.21,5.8-14.33,11-19.8,14.02l-16.58-14.78
				c0,0,9.36-14.51,25.75-29.11c10.41-9.27,16.96-27.37,19.01-28.05C729.44,329.56,727.64,361.01,717.9,367.79z"/>
			<path class="st9" d="M702.26,404.85c0,0-139.21,108.05-143.43,116.94c-4.22,8.88-36.27,74.55-37.13,88.1
				c-0.55,8.8,1.58,16.15,1.4,20.7c-0.1,2.45-0.87,4.09-3.09,4.67c-0.63,0.17-1.78,0.41-3.34,0.68
				c-14.04,2.52-61.54,8.45-70.68-0.68c-0.2-0.2-0.39-0.39-0.55-0.58c-9.17-9.85,1.88-17.25,5.19-20.99
				c2.57-2.88,2.95-37.05,2.97-53.48c0.02-5.26,0-8.7,0-8.7l-123.1,88.67l-0.02-0.04l-15.2-23.5c0,0,0.34-0.29,0.98-0.82
				c10.89-9.03,109.32-90.7,133.95-108.32c0,0,15.36-14.3,50.66-23.32l-0.06,0.16c11.39,9.98,21.38,2.1,21.38,2.1
				c0.91-1.91,1.94-4.42,2.91-6.98c7.24-1.01,16.03-4.39,24.89-5.95c8.41-1.49,16.43-4.72,23.71-9.21
				c36.1-22.27,107.05-78.62,107.05-78.62l15.32,13.67L702.26,404.85z"/>
			<path class="st6" d="M330.48,640.15c-1.32,5.33-4,15.2-6.85,20.29c-4.01,7.19-6.98-0.75-3.7-14.49c0,0-15.86,16.81-28.55,17.77
				c-12.69,0.94-20.52-17.98-18.29-20.84c1.91-2.46,29.88-21.67,43.18-27.05c-0.65,0.53-0.98,0.82-0.98,0.82L330.48,640.15z"/>
			<path class="st10" d="M523.1,630.59c-0.1,2.45-0.87,4.09-3.09,4.67c-0.63,0.17-1.78,0.41-3.34,0.68
				c-14.04,2.52-61.54,8.45-70.68-0.68c-0.2-0.2-0.39-0.39-0.55-0.58c-9.17-9.85,1.88-17.25,5.19-20.99
				c2.57-2.88,2.95-37.05,2.97-53.48l0.01-0.02l0.2-26.47C453.81,533.72,458.31,617.56,523.1,630.59z"/>
		</g>
		<g>
			<path class="st1" d="M637.18,657.27c-2.53,6.66-52.35,126.26-52.66,127.22c-0.06,0.19-1.75,0.04-4.45-0.32
				c-8.18-1.07-25.56-4.05-34.16-5.55c-0.56-0.1-1.08-0.19-1.55-0.27c-1.75-0.3-2.72-2.19-1.94-3.78
				c8.26-17.1,47.11-97.54,46.53-99.53c-0.63-2.21-87.24,22.85-109.77,31.74c-21.42,8.44-135.8,151.73-146.96,165.76
				c-0.56,0.7-1.42,1.07-2.3,0.99l-1.85-0.15h-0.01l-32.83-2.56c-1.48-0.11-2.47-1.35-2.47-2.67c0-0.5,0.14-0.99,0.44-1.45
				c23.73-36.26,125.58-191.41,150.18-228.86c0.76-1.17,1.45-2.21,2.06-3.14c0.16,0.2,0.35,0.39,0.55,0.58
				c9.13,9.13,56.64,3.21,70.68,0.68c1.67,4.54,4.3,10.76,6.31,11.17c0.05,0.01,0.1,0.01,0.16,0.01c0,0,0.01,0.01,0.01,0
				c0.31,0,0.82-0.1,1.54-0.29c0.12-0.02,0.19-0.04,0.19-0.04c10.35-2.68,57.49-20.93,88.51-20.64
				C647.33,626.49,639.72,650.6,637.18,657.27z"/>
			<path d="M374.5,912.66c-5.39,4.44-101.21,2.21-101.53-5.39c-0.24-5.89,15.22-27.1,22.27-36.46l32.83,2.56h0.01
				C340.07,888.13,379.31,908.69,374.5,912.66z"/>
			<path d="M624.56,821.24c-5.39,4.44-101.2,2.21-101.52-5.39c-0.26-6.05,16.14-28.36,22.88-37.24c8.6,1.5,25.98,4.49,34.16,5.55
				C593.85,798.69,629.13,817.48,624.56,821.24z"/>
			<path class="st11" d="M595.31,663.76l-6.35,11.27c-0.63-2.21-87.24,22.85-109.77,31.74
				C528.47,678.85,595.31,663.76,595.31,663.76z"/>
			<path class="st11" d="M523.14,647.13c-9.68,1.76-57.3,9.19-79.76-9.31c0.76-1.17,1.45-2.21,2.06-3.14
				c0.16,0.2,0.35,0.39,0.55,0.58c9.13,9.13,56.64,3.21,70.68,0.68c1.67,4.54,4.3,10.76,6.31,11.17
				C523.03,647.13,523.08,647.13,523.14,647.13z"/>
		</g>
	</g>
</g>
</svg>
