<?xml version="1.0" encoding="utf-8"?>
<!-- Generator: Adobe Illustrator 25.2.0, SVG Export Plug-In . SVG Version: 6.00 Build 0)  -->
<svg version="1.1" xmlns="http://www.w3.org/2000/svg" xmlns:xlink="http://www.w3.org/1999/xlink" x="0px" y="0px"
	 viewBox="0 0 1600 1200" style="enable-background:new 0 0 1600 1200;" xml:space="preserve">
<style type="text/css">
	.st0{fill:#D7ECFF;}
	.st1{fill:#90AACB;}
	.st2{fill:#94CBED;}
	.st3{fill:none;stroke:#7898B5;stroke-width:2;stroke-linecap:round;stroke-miterlimit:10;}
	.st4{fill:#4D7199;}
	.st5{fill:#375A7A;}
	.st6{fill:#B1CEE8;}
	.st7{fill:#9FBFE2;}
	.st8{fill:none;stroke:#D7ECFF;stroke-width:11;stroke-linecap:round;stroke-miterlimit:10;}
	.st9{fill:#FFB085;}
	.st10{fill:#BC7A5C;}
	.st11{fill:#FFAD9F;}
	.st12{fill:#AA4437;}
	.st13{fill:none;stroke:#AA4437;stroke-linecap:round;stroke-miterlimit:10;}
	.st14{fill:#CEA980;}
	.st15{fill:#F9D5A7;}
	.st16{fill:none;stroke:#000000;stroke-width:2;stroke-linecap:round;stroke-miterlimit:10;}
	.st17{fill:#FFAD9F;stroke:#AA4437;stroke-miterlimit:10;}
</style>
<g id="BACKGROUND">
	<g>
		<path class="st0" d="M179.84,1086.75c0,0-154.32-134.28,176.36-372.77s268.55-226.47,410.85-464.96s452.93-218.45,501.03,64.13
			c48.1,282.58,12.02,312.64,64.13,418.86c52.11,106.22,274.57,328.68,72.15,354.73C1201.95,1112.81,179.84,1086.75,179.84,1086.75z
			"/>
		<ellipse class="st1" cx="761.78" cy="1075.96" rx="649.67" ry="39.62"/>
	</g>
</g>
<g id="LEAVES">
	<g>
		<g>
			<path class="st2" d="M325.89,749.25c0,0-118.49-41.11-87.52-180.26C238.37,568.99,380.76,598.08,325.89,749.25z"/>
			<path class="st3" d="M325.07,748.94c0,0-57.65-140.61-85.59-178.42"/>
			<line class="st3" x1="302.94" y1="696.93" x2="244.41" y2="671.22"/>
			<line class="st3" x1="286.59" y1="660.31" x2="302.85" y2="602.56"/>
		</g>
		<g>
			<path class="st2" d="M1058.36,1053.74c0,0,2.41-237.36,295.45-263.38C1353.81,790.36,1390.7,1063.66,1058.36,1053.74z"/>
			<path class="st3" d="M1058.41,1052.08c0,0,237.48-186.34,293.13-258.83"/>
			<line class="st3" x1="1145.72" y1="981.72" x2="1157.51" y2="861.29"/>
			<line class="st3" x1="1206.69" y1="930.77" x2="1330.54" y2="926.11"/>
		</g>
		<g>
			<path class="st2" d="M458.31,1048.14c0,0-197.66,7.37-231.74-214.86C226.58,833.28,452.49,794.58,458.31,1048.14z"/>
			<path class="st3" d="M456.93,1048.17c0,0-165.16-173.69-227.85-213.27"/>
			<line class="st3" x1="394.67" y1="984.38" x2="293.93" y2="980.07"/>
			<line class="st3" x1="349.68" y1="939.91" x2="340.55" y2="845.74"/>
		</g>
		<g>
			<path class="st2" d="M439,936.45c0,0-119.77-138.85,21.4-292.18C460.4,644.27,619.21,785.43,439,936.45z"/>
			<path class="st3" d="M438.18,935.46c0,0,30.13-220.14,22.5-288.44"/>
			<line class="st3" x1="448.31" y1="853.45" x2="393.12" y2="778.02"/>
			<line class="st3" x1="454.47" y1="795.13" x2="517.36" y2="734"/>
		</g>
		<g>
			<path class="st2" d="M1202.71,801.61c0,0-38.89-149.07,124.36-212.42C1327.07,589.2,1394.55,754.47,1202.71,801.61z"/>
			<path class="st3" d="M1202.46,800.56c0,0,104.26-154.85,123.8-209.19"/>
			<line class="st3" x1="1240.48" y1="742.47" x2="1226.79" y2="665.14"/>
			<line class="st3" x1="1266.72" y1="700.77" x2="1336.79" y2="677.97"/>
		</g>
	</g>
</g>
<g id="LAPTOP">
	<g>
		<g>
			<path class="st4" d="M1068.24,1015.72l-675.04,2.85l155.35-350.22c3.2-6.35,9.49-10.57,16.58-11.12l613.2-48.13
				c14.54-1.14,25.52,12.93,20.88,26.75L1068.24,1015.72z"/>
			<path class="st1" d="M1028.3,992.33l-576.16,2.43l132.59-298.92c2.73-5.42,8.1-9.02,14.15-9.5l523.38-41.08
				c12.41-0.97,21.78,11.04,17.82,22.83L1028.3,992.33z"/>
			<path class="st5" d="M819.23,1067.63h-659.7c-14.34,0-25.97-11.63-25.97-25.97v-25.96h685.67V1067.63z"/>
			<path d="M1040.89,1044.74l-221.66,22.89v-51.93l253.04-10.65l-0.31,6.77C1071.18,1028.98,1057.97,1042.98,1040.89,1044.74z"/>
			<path class="st6" d="M1048.95,809.84l-464.2,11.18c-10.1,0.24-16.97-10.16-12.79-19.35l41.77-91.92
				c2.07-4.55,6.45-7.61,11.43-7.99l461.74-35.06c9.79-0.74,17.16,8.76,14,18.05l-39.31,115.79
				C1059.74,805.99,1054.69,809.7,1048.95,809.84z"/>
			<path class="st6" d="M1017.12,867.5l-466.03,7.66c-4.24,0.07-7.74-3.31-7.81-7.56l-0.04-2.39c-0.07-4.24,3.31-7.74,7.56-7.81
				l466.03-7.66c4.24-0.07,7.74,3.31,7.81,7.56l0.04,2.39C1024.75,863.94,1021.37,867.43,1017.12,867.5z"/>
			<path class="st6" d="M1006.56,920.84l-478.52,7.86c-4.24,0.07-7.74-3.31-7.81-7.56l-0.04-2.39c-0.07-4.24,3.31-7.74,7.56-7.81
				l478.52-7.86c4.24-0.07,7.74,3.31,7.81,7.56l0.04,2.39C1014.19,917.27,1010.8,920.77,1006.56,920.84z"/>
		</g>
		<g>
			<path class="st7" d="M695.63,757.24c-0.6,11.01-5.52,20.74-13.02,27.66c-6,5.55-13.65,9.28-22.07,10.42
				c-2.52,0.34-5.12,0.45-7.75,0.31c-2.64-0.14-5.2-0.54-7.67-1.16c-7.84-1.95-14.73-6.17-20-11.88
				c-7.19-7.78-11.35-18.38-10.72-29.81c1.23-22.42,20.41-39.61,42.84-38.38C679.67,715.64,696.86,734.82,695.63,757.24z"/>
			<circle class="st0" cx="655.85" cy="741.09" r="16.87"/>
			<path class="st0" d="M682.61,784.9c-6,5.55-13.65,9.28-22.07,10.42c-2.52,0.34-5.12,0.45-7.75,0.31
				c-2.64-0.14-5.2-0.54-7.67-1.16c-7.84-1.95-14.73-6.17-20-11.88c3.96-9.57,12.93-22,32.71-20.85
				C674.81,762.73,680.65,775.17,682.61,784.9z"/>
		</g>
		<line class="st8" x1="714.84" y1="725.41" x2="1023.77" y2="707.43"/>
		<line class="st8" x1="712.8" y1="750.42" x2="1023.77" y2="735.69"/>
		<line class="st8" x1="710.29" y1="777.2" x2="1023.77" y2="763.89"/>
	</g>
</g>
<g id="MEGAPHONE">
	<g>
		<path class="st1" d="M907.79,377.21c0,0.01,0,0.01-0.01,0.02c-5.04,12.82-18.49,43.38-50.41,99.35
			c-3.11,5.43-19.55-4.49-20.52-6.15c-0.67-1.14,15.23-37.27,27.05-64.99c5.24-12.32,9.67-22.99,11.48-28.2
			c5.88-16.94,35.1-7.39,35.1-7.39S909.79,372.14,907.79,377.21z"/>
		<path class="st4" d="M907.79,377.21c0,0.01,0,0.01-0.01,0.02c-7.02,8.87-20,19.84-43.88,28.21c5.24-12.32,9.67-22.99,11.48-28.2
			c5.88-16.94,35.1-7.39,35.1-7.39S909.79,372.14,907.79,377.21z"/>
		<path class="st1" d="M914.51,358.76l-7.81,21.52c-2.93,8.08-11.3,12.82-19.73,11.18l-24.82-4.8l-1.67-0.32
			c-0.69-0.14-1.31-0.42-1.84-0.8c-0.58-0.4-1.07-0.93-1.41-1.54c-0.14-0.23-0.25-0.49-0.35-0.75c-0.37-1.01-0.4-2.16,0-3.27
			l19.66-54.18c1.04-2.86,4.44-4.04,7.03-2.44l0.95,0.58l22.73,13.98C914.3,342.27,917.33,350.98,914.51,358.76z"/>
		<path class="st4" d="M876.61,364.06c-2.8,5.78-8.74,15.71-17.13,17.14c-0.01,0.01-0.02,0.01-0.03,0.01
			c-0.83,0.14-1.69,0.2-2.56,0.15c-0.11-0.01-0.22-0.01-0.32-0.02l-114.54-8.63l-2.92-0.22l43.66-124.27l2.02,2.75l91.22,70.76
			c0.44,0.15,0.86,0.35,1.23,0.58l1.22,0.95l0.03,0.01c6.4,6.15,2.72,25.21,0.83,33.14C878.67,359.04,877.79,361.61,876.61,364.06z"
			/>
		<path class="st5" d="M879.06,365.58c-2.8,5.78-8.74,15.71-17.13,17.14c-0.01,0.01-0.02,0.01-0.03,0.01
			c-0.74,0.13-1.51,0.19-2.3,0.16c-0.58-0.4-1.07-0.93-1.41-1.54c0.42-0.03,0.84-0.08,1.25-0.15c0.01,0,0.02,0,0.03-0.01
			c8.39-1.43,14.34-11.35,17.13-17.14c1.18-2.45,2.07-5.01,2.7-7.65c1.89-7.94,5.57-26.99-0.83-33.14
			c9.69,3.4,5.38,25.88,3.29,34.67C881.13,360.57,880.25,363.14,879.06,365.58z"/>
		
			<ellipse transform="matrix(0.3412 -0.94 0.94 0.3412 209.1711 919.0639)" class="st5" cx="760.22" cy="310.32" rx="65.36" ry="20.64"/>
	</g>
	<g>
		<path class="st9" d="M564.88,122.11c3.73,0.21,156.96,114.26,156.96,114.26l-9.04,14.52l-167.77-90.19L564.88,122.11z"/>
		<path class="st9" d="M507.54,373.93c2.69-2.39,184.49-28.33,184.49-28.33l3.67,16.03l-175.57,52.08L507.54,373.93z"/>
		<path class="st9" d="M430.89,220.24c3.34-1.11,176.92,45.5,176.92,45.5l-2.87,15.84l-178.03-20.69L430.89,220.24z"/>
	</g>
</g>
<g id="MALE">
	<g>
		<g>
			<path d="M1052.38,1031.96l5.03,58.16c0,0-119.92,17.95-128.53,8.62s83.29-40.21,85.45-66.78
				C1016.47,1005.4,1052.38,1031.96,1052.38,1031.96z"/>
			<path d="M1217.58,1021.27l14.19,56.63c0,0-115.55,36.74-125.54,28.89c-9.99-7.85,75.86-52.91,73.78-79.48
				C1177.92,1000.73,1217.58,1021.27,1217.58,1021.27z"/>
			<path class="st9" d="M1047.63,663.09v-0.01c-5.74-10.8-10.67-17.52-14.42-18.8l3.11,51.11l21.08,347.03h-51.79
				c0,0-26.47-444.59-18.62-471.9c5.03-17.44,37.65-12.61,60.56-6.83c12.97,3.26,22.83,6.83,22.83,6.83s4.13,12.39,11.02,33.11
				c32.07,96.27,123.89,372.31,138.63,419.91l-45.08,14.16C1174.97,1037.69,1089.44,741.8,1047.63,663.09z"/>
			<path class="st10" d="M1033.21,644.28l3.11,51.11c-0.01,0.01-0.01,0.01-0.01,0.01l-15.5-65.75c0,0,25.3,20.55,26.82,33.43
				C1041.89,652.28,1036.97,645.56,1033.21,644.28z"/>
			<path class="st10" d="M1081.41,603.63c-29.41-24.5-57.64-24.87-57.64-24.87l23.78-15.07c12.97,3.26,22.83,6.83,22.83,6.83
				S1074.51,582.91,1081.41,603.63z"/>
		</g>
		<g>
			<path class="st11" d="M1222.92,621.99c-0.59,3.82-19.18,10.32-23.02,8.25c-3.84-2.06-17.11-30.38-19.17-25.08
				c-2.07,5.32,6.19,15.63,0,14.76c-2.23-0.32-12.4-18-13.87-21.54c-0.14-0.34-0.28-0.81-0.39-1.4c-1.19-5.56-1.68-21.02-1.68-21.02
				l10.17-5.44l10.78-5.78C1185.75,564.74,1223.51,618.15,1222.92,621.99z"/>
			<path class="st12" d="M1174.97,570.52c-3.32,5.45-6.58,13.79-8.49,26.46c-1.19-5.56-1.68-21.02-1.68-21.02L1174.97,570.52z"/>
			<line class="st13" x1="1193.86" y1="609.67" x2="1206.69" y2="629.66"/>
			<line class="st13" x1="1200.8" y1="607.43" x2="1213.63" y2="627.42"/>
			<line class="st13" x1="1207.21" y1="604.33" x2="1220.04" y2="624.32"/>
			<path class="st14" d="M1187.91,568.78c-0.34,0.99-18.26,7.86-23.9,9.98c-1.05,0.4-1.68,0.64-1.68,0.64l-101.89-163.25
				c0,0-15.33-26.75,7.08-36.27c0.82-0.35,1.74-0.42,2.77-0.22C1097.04,384.58,1188.29,567.64,1187.91,568.78z"/>
			<path class="st15" d="M1187.91,568.78c-0.34,0.99-18.26,7.86-23.9,9.98l-101.49-162.61c0,0-15.35-26.75,7.08-36.27
				c0.23-0.09,0.46-0.17,0.7-0.22C1097.04,384.58,1188.29,567.64,1187.91,568.78z"/>
		</g>
		<g>
			<path class="st11" d="M1011.77,385.06c-11.41,2.37-12.58-9.05-12.58-9.05l-0.91-3.41l-6.96-26.09l20.45-5.5l1.95,7.6l5.52,21.51
				C1019.24,370.12,1023.18,382.71,1011.77,385.06z"/>
			<path class="st12" d="M1013.72,348.62c-4.31,10.1-9.93,20.75-15.45,23.99l-6.96-26.09l20.45-5.5L1013.72,348.62z"/>
			<g>
				<path d="M928.37,293.8c0,0-19.67-64.91,28.32-81.04s82.61-9.83,95.99,40.52c3.93,13.38,2.23,51.88-23.27,71.18L928.37,293.8z"/>
				<path class="st11" d="M928.37,293.8c0,0,8.26,72.78,63.73,61.76c24.39-6.69,39.73-25.96,38.55-40.13c0,0,14.56-1.57,14.95-14.56
					c0.39-12.98-5.9-36.98-19.28-11.41c0,0-21.24,4.72-60.58-49.17C965.74,240.3,940.17,257.61,928.37,293.8z"/>
				<path class="st12" d="M1030.65,296.56c0,0,1.97-15.74,6.29-12.19c4.33,3.54,4.33,19.28,0,20.46
					C1032.62,306,1031.44,305.21,1030.65,296.56z"/>
				<ellipse transform="matrix(0.9921 -0.1256 0.1256 0.9921 -29.7392 121.3149)" cx="947.26" cy="296.52" rx="5.11" ry="10.23"/>
				<ellipse transform="matrix(0.9921 -0.1256 0.1256 0.9921 -28.947 125.7568)" cx="982.89" cy="292.45" rx="5.11" ry="10.23"/>
				<path class="st16" d="M937.03,283.84c0,0,5.9-9.51,14.16-2.23"/>
				<path class="st16" d="M972.83,278.87c0,0,5.9-9.51,14.16-2.23"/>
				<path class="st16" d="M962.01,282.99l4.52,24c0,0-5.9-2.56-7.67,1.18c-1.77,3.74,1.77,14.36,7.67,10.62"/>
				<path class="st12" d="M992.1,323.9c0,0-3.25,23.7-13.08,23.7s-18.69-18-18.69-18L992.1,323.9z"/>
			</g>
		</g>
		<g>
			<path class="st11" d="M857.47,398.55c0,0,14,3.49,14.3,10.72s-7.52,30.01-14.74,29.52c-7.22-0.49-15.89-6.39-15.06-9.2
				C842.8,426.78,844.89,401.21,857.47,398.55z"/>
			<path class="st17" d="M891.05,422.36c-7.73-15.01-18.24-20.31-18.49-20.44c-1.73-0.91-3.89-0.83-5.6,0.38l-13.01,9.18
				c-1.52,1.08-2.32,2.81-2.28,4.55c0.03,1.04,0.34,2.07,0.99,2.98c1.72,2.44,5.1,3.02,7.53,1.31l9.39-6.62
				c-6.12,21.58,10.1,32.1,10.22,31.81C879.89,445.2,903.43,446.41,891.05,422.36z"/>
			<path class="st13" d="M862.57,435.22c0,0-8.46-2.65-11.7-5.29"/>
			<path class="st13" d="M866.02,427.96c0,0-8.46-2.65-11.7-5.29"/>
		</g>
		<g>
			<path class="st15" d="M891.59,421.26l-19.67,28.32c0,0,45.24,75.92,62.55,73.56s38.17-59.01,38.17-59.01s11.42,72.78,7.08,100.71
				c-3.03,7.87-2.37,16.52,11.4,17.31c13.77,0.79,87.82-5.6,88.12-8.65c4.79-48.42,3.01-190.33-3.93-191.97
				c-8.68-2.05-61.78-10.62-61.78-10.62s-46.4,13.38-55.32,23.6s-21.97,85.41-21.97,85.41L891.59,421.26z"/>
			<path class="st14" d="M966.53,418.49l8.45,62.11c0,0-25.37,42.36-38.45,42.01C936.54,522.61,968.89,477.28,966.53,418.49z"/>
		</g>
	</g>
</g>
</svg>
