<?xml version="1.0" encoding="utf-8"?>
<!-- Generator: Adobe Illustrator 25.2.0, SVG Export Plug-In . SVG Version: 6.00 Build 0)  -->
<svg version="1.1" xmlns="http://www.w3.org/2000/svg" xmlns:xlink="http://www.w3.org/1999/xlink" x="0px" y="0px"
	 viewBox="0 0 1600 1200" style="enable-background:new 0 0 1600 1200;" xml:space="preserve">
<style type="text/css">
	.st0{fill:#D7ECFF;}
	.st1{fill:#AAC5E2;}
	.st2{fill:#4D7199;}
	.st3{fill:#F9D5A7;}
	.st4{fill:#FFB085;}
	.st5{fill:#6A8AAD;}
	.st6{fill:#FFAD9F;}
	.st7{fill:none;stroke:#000000;stroke-width:3;stroke-linecap:round;stroke-miterlimit:10;}
	.st8{fill:#AA4437;}
	.st9{fill:#CEA980;}
	.st10{fill:none;stroke:#AA4437;stroke-width:3;stroke-linecap:round;stroke-miterlimit:10;}
	.st11{fill:#375A7A;}
	.st12{fill:none;stroke:#375A7A;stroke-linecap:round;stroke-miterlimit:10;}
	.st13{fill:#BC7A5C;}
	.st14{fill:#353535;}
	.st15{fill:#13293A;}
	.st16{fill:#264663;}
	.st17{fill:none;stroke:#000000;stroke-width:3;stroke-miterlimit:10;}
	.st18{fill:none;stroke:#270035;stroke-width:3;stroke-linecap:round;stroke-miterlimit:10;}
	.st19{fill:#4D7199;stroke:#1D1D1B;stroke-width:3;stroke-miterlimit:10;}
</style>
<g id="BACKGROUND">
	<g>
		<path class="st0" d="M224.56,1065.89c0,0-149.55-111.66,171.48-334.99c37.89-23.93,183.45-139.58,221.33-209.37
			c37.89-69.79,251.24-438.68,446.66-378.86c43.87,11.96,177.47-31.9,241.27,424.72c9.97,57.83-35.11,131.15,80.54,302.63
			c115.65,171.48-212.14,235.75-313.84,221.79C970.32,1077.85,224.56,1065.89,224.56,1065.89z"/>
		<path class="st1" d="M1319.45,1056.47c0,32.06-249.42,58.05-557.1,58.05s-557.11-25.99-557.11-58.05
			c0-14.94,54.12-28.55,143.02-38.84c101.97-11.8,249.72-19.21,414.08-19.21c204.15,0,382.65,11.44,479.66,28.51
			C1291.22,1035.58,1319.45,1045.68,1319.45,1056.47z"/>
	</g>
</g>
<g id="SPEECH_BALLOON">
	<g>
		<path class="st2" d="M1120.52,143.35v80.96c0,31.96-25.91,57.87-57.87,57.87H865.32l-88.17,59.62c-1.47,0.99-3.28-0.66-2.42-2.21
			l31.8-57.41H779.2c-31.96,0-57.87-25.91-57.87-57.87v-80.96c0-31.96,25.91-57.87,57.87-57.87h283.46
			C1094.62,85.48,1120.52,111.39,1120.52,143.35z"/>
		<rect x="764.97" y="128.82" class="st0" width="95.14" height="34.31"/>
		<rect x="764.97" y="172.5" class="st0" width="95.14" height="34.31"/>
		<rect x="764.97" y="216.19" class="st0" width="95.14" height="34.31"/>
		<rect x="882.29" y="128.82" class="st0" width="194.6" height="123.73"/>
		<path class="st3" d="M1063.93,193.45c0,6.98-1.79,13.54-4.94,19.25c-6.79,12.31-19.89,20.64-34.95,20.64
			c-14.49,0-27.18-7.73-34.16-19.29l34.16-22.44v-38.05C1046.07,153.55,1063.93,171.41,1063.93,193.45z"/>
		<path class="st4" d="M1024.03,153.55v38.05l-34.16,22.44c-3.63-6.01-5.72-13.06-5.72-20.59c0-19.95,14.64-36.47,33.74-39.43
			C1019.89,153.71,1021.95,153.55,1024.03,153.55z"/>
		<path class="st5" d="M1063.93,193.45c0,6.98-1.79,13.54-4.94,19.25l-34.95-21.1v-38.05
			C1046.07,153.55,1063.93,171.41,1063.93,193.45z"/>
		<path class="st5" d="M962.84,166.33h-65.3c-1.43,0-2.59-1.16-2.59-2.59v-1.22c0-1.43,1.16-2.59,2.59-2.59h65.3
			c1.43,0,2.59,1.16,2.59,2.59v1.22C965.43,165.17,964.27,166.33,962.84,166.33z"/>
		<path class="st5" d="M962.84,186.32h-65.3c-1.43,0-2.59-1.16-2.59-2.59v-1.22c0-1.43,1.16-2.59,2.59-2.59h65.3
			c1.43,0,2.59,1.16,2.59,2.59v1.22C965.43,185.16,964.27,186.32,962.84,186.32z"/>
		<path class="st5" d="M962.84,206.32h-65.3c-1.43,0-2.59-1.16-2.59-2.59v-1.22c0-1.43,1.16-2.59,2.59-2.59h65.3
			c1.43,0,2.59,1.16,2.59,2.59v1.22C965.43,205.16,964.27,206.32,962.84,206.32z"/>
		<path class="st5" d="M962.84,225.78h-65.3c-1.43,0-2.59-1.16-2.59-2.59v-1.22c0-1.43,1.16-2.59,2.59-2.59h65.3
			c1.43,0,2.59,1.16,2.59,2.59v1.22C965.43,224.62,964.27,225.78,962.84,225.78z"/>
	</g>
</g>
<g id="BODY">
	<g>
		<g>
			<path d="M1109.99,444.66c0,0,30.36-17.62,36.63-56.43s-1.39-64.85-38.93-78.89c-37.53-14.04-119.23,3.83-93.61,81.19
				C1020.03,408.5,1109.99,444.66,1109.99,444.66z"/>
			<path class="st6" d="M1106.92,430.1l6.64,12.51l2.23,6.58l7.47,22.02c0,0-25.02,14.55-25.53,12.91
				c-0.18-0.58-1.82-4.36-3.87-9.01c-3.32-7.54-7.72-17.37-8.7-19.55c-0.12-0.29-0.19-0.44-0.19-0.44
				c-43.66,37.53-59.66-21.96-59.66-21.96s-6.22-2.55-11.23-6.63c-5.02-4.09,5.61-15.32,5.61-15.32
				c-15.74-47.75,3.23-70.73,3.23-70.73c26.3,55.41,72.77,59.49,72.77,59.49c14.04-28.08,32.43-5.61,31.89,6.9
				C1127.05,419.38,1106.92,430.1,1106.92,430.1z"/>
			<ellipse transform="matrix(0.9745 -0.2243 0.2243 0.9745 -63.9294 243.4782)" cx="1039.46" cy="403.06" rx="3.29" ry="10.6"/>
			<path class="st7" d="M1030.58,388.23c0,0,3.06-7.66,10.47-2.3"/>
			<path class="st7" d="M1033.76,447.28c0,0,13.19,2.01,21.11-8.97"/>
			<path class="st8" d="M1118.41,395.89c0,0-10.98-8.43-14.81,3.83c-3.83,12.26-1.79,21.19,0,21.19S1125.31,416.06,1118.41,395.89z"
				/>
			<path class="st8" d="M1115.79,449.19c-4.01,6.6-12.24,18.84-21.93,25.92c-3.32-7.54-7.72-17.37-8.7-19.55
				c7.38-7.13,15.69-16.13,21.76-25.46l6.64,12.51L1115.79,449.19z"/>
		</g>
		<g>
			<path class="st8" d="M920.93,543.19c0,0-22.66-28-36.4-29.18s-32.79-0.27-40.34,6.1s-30.54,22.86-26.43,25.32
				s15.05-1.94,15.05-1.94s-6.67,13.47,18.12,0.35c0,0-5.01,9.42,13.41,5.82c0,0,29.41,23.41,41.47,22.58
				C917.86,571.41,920.93,543.19,920.93,543.19z"/>
			<path class="st9" d="M1106.16,556.16c-39.83,50.55-77.25,89.68-92.94,84.77c-2.85-0.89-6.32-2.18-10.29-3.81
				c-23.07-9.5-62.82-30.83-94.09-55.69c-2.32-1.85-4.6-3.72-6.82-5.6c-1.55-1.32-1.9-3.59-0.84-5.33l16.51-27.24
				c1.26-2.07,3.99-2.64,5.97-1.25c16.41,11.53,82.79,57.81,89.05,56.02c1.11-0.32,3.62-3.35,7.12-8.23
				c19.06-26.53,67.74-107.79,83.26-105.64c7.45,1.03,15.92,4.76,20.68,12.19C1130.77,507.25,1129.84,526.11,1106.16,556.16z"/>
			<path class="st3" d="M1133.37,665.85l-160.34,89.87c0,0,15.56-47.02,34.23-100.29c0.43-1.23,0.86-2.46,1.29-3.69
				c3.97,1.63,7.44,2.92,10.29,3.81c15.69,4.91,53.11-34.22,92.94-84.77c23.68-30.05,24.61-48.91,17.61-59.81
				c-4.76-7.43-13.23-11.16-20.68-12.19c-15.52-2.15-64.2,79.11-83.26,105.64c8.91-24.42,17.64-47.46,24.99-65.16
				c28.39-68.38,72.72-71.94,72.72-71.94C1169.12,471.01,1133.37,665.85,1133.37,665.85z"/>
			<path class="st9" d="M1117.08,576.31c-39.83,50.55-77.25,89.68-92.94,84.77c-4.94-1.55-8.57-2.83-16.57-6.51
				c0.43-1.23,1.79-5.33,2.21-6.56c3.97,1.63,3.34,4.35,6.19,5.24c15.69,4.91,53.11-34.22,92.94-84.77
				c23.68-30.05,24.61-48.91,17.61-59.81C1140.16,516.94,1147.97,537.11,1117.08,576.31z"/>
			<path class="st9" d="M1025.31,606.53c0,0,42.01-73.02,56.83-88.68c14.83-15.66,34.1-38.85,54.95,3.61L1025.31,606.53z"/>
			<g>
				<path class="st6" d="M925.63,559.55c0,0-5.17,27.91-17.26,27.83c-1.16-0.01-2.46-0.25-3.86-0.68
					c-13.25-4.06-35.8-24.94-35.8-24.94c-1.09,0.13-2.1,0.22-3.03,0.28c-14.58,0.88-10.14-6.69-9.91-7.08
					c-25.7,11.23-18.04-1.71-18.04-1.71s-11.23,3.57-15.15,0.8c-3.91-2.77,20.26-17.48,28.26-23.27c8-5.79,27.06-5.28,40.68-3.06
					C905.14,529.93,925.63,559.55,925.63,559.55z"/>
				<path class="st10" d="M837.73,553.25c0.38,0,13.98-13.87,27.95-19.11"/>
				<path class="st10" d="M856.25,554.06c0,0,6.74-7.91,19.11-12.38"/>
				<path class="st10" d="M869.91,558.59c0,0,3.99-3.51,14.63-9.38"/>
			</g>
			<path class="st3" d="M1111.78,570.78c-39.83,50.55-77.25,89.68-92.94,84.77c-2.85-0.89-6.32-2.18-10.29-3.81
				c-23.07-9.5-62.82-30.83-94.09-55.69c-2.32-1.85-4.6-3.72-6.82-5.6c-1.55-1.32-1.9-3.59-0.84-5.33l16.51-27.24
				c1.26-2.07,3.99-2.64,5.97-1.25c16.41,11.53,82.79,57.81,89.05,56.02c1.11-0.32,3.62-3.35,7.12-8.23
				c19.06-26.53,67.74-107.79,83.26-105.64c7.45,1.03,15.92,4.76,20.68,12.19C1136.39,521.87,1135.46,540.73,1111.78,570.78z"/>
		</g>
	</g>
</g>
<g id="CUP">
	<g>
		<polygon class="st1" points="784.02,514.38 783.8,517.25 783.04,527.21 781.72,544.31 780.89,555.17 780.44,561.04 744.22,561.04 
			744.13,559.61 743.86,555.17 743.19,544.31 742.13,527.21 741.51,517.25 741.33,514.38 		"/>
		<path class="st1" d="M789.78,507.72v4.36c0,1.27-1.04,2.31-2.32,2.31h-50.21c-1.28,0-2.32-1.04-2.32-2.31v-4.36
			c0-1.28,1.04-2.32,2.32-2.32h50.21C788.74,505.4,789.78,506.43,789.78,507.72z"/>
		<path class="st1" d="M782.12,505.39h-40.05l0.42-1.58l1.88-6.94c0.59-2.15,2.54-3.63,4.75-3.63h26.1c0.04,0,0.07,0,0.11,0.01
			c2.21,0.04,4.12,1.56,4.66,3.72l1.72,6.84L782.12,505.39z"/>
		<polygon class="st11" points="783.04,527.21 781.72,544.31 743.19,544.31 742.13,527.21 		"/>
		<line class="st12" x1="742.07" y1="514.93" x2="783.38" y2="514.93"/>
		<line class="st12" x1="742.71" y1="504.77" x2="781.47" y2="504.77"/>
	</g>
</g>
<g id="LAPTOP">
	<g>
		<path class="st2" d="M679.17,397.55l43.04,168.72c1.22,4.78-1.67,9.65-6.45,10.87l0,0c-4.78,1.22-9.65-1.67-10.87-6.45
			l-43.04-168.72c-1.22-4.78,1.67-9.65,6.45-10.87l0,0C673.09,389.88,677.95,392.77,679.17,397.55z"/>
		<path class="st11" d="M887.35,577.42H713.22c-4.94,0-8.94-4-8.94-8.94l0,0c0-4.94,4-8.94,8.94-8.94h174.13
			c4.94,0,8.94,4,8.94,8.94l0,0C896.29,573.42,892.29,577.42,887.35,577.42z"/>
	</g>
</g>
<g id="INNER_FOOT">
	<g>
		<path d="M725.86,968.73c0,0,14.03,63.85,6.66,70.28c-7.37,6.42-150.07,14.85-150.78,4.57c-0.71-10.28,89.19-59.51,92.75-70.21
			C678.05,962.67,725.86,968.73,725.86,968.73z"/>
		<path class="st13" d="M925.63,759.32c0-2.14-133.66-63.5-163.39-38.53c-26.14,21.96-91.26,206.51-106.6,250.75
			c-1.62,4.66,1.84,9.52,6.77,9.53l68.44,0.18c3,0.01,5.69-1.85,6.74-4.66l61.25-163.37c1.68-4.48,7.18-6.09,11.02-3.24l21.35,15.91
			L925.63,759.32z"/>
	</g>
</g>
<g id="TABLE">
	<g>
		<path class="st11" d="M787.01,1037h-34.72c-1.83,0-3.32-1.49-3.32-3.32V629.76c0-1.83,1.49-3.32,3.32-3.32h34.72
			c1.83,0,3.32,1.49,3.32,3.32v403.91C790.33,1035.51,788.84,1037,787.01,1037z"/>
		<path class="st2" d="M896.29,630.53H643.01c-6.2,0-11.23-5.03-11.23-11.23v-30.64c0-6.2,5.03-11.23,11.23-11.23h253.28
			c6.2,0,11.23,5.03,11.23,11.23v30.64C907.52,625.5,902.49,630.53,896.29,630.53z"/>
	</g>
</g>
<g id="OUTER_FOOT">
	<g>
		<path class="st14" d="M783.18,988.87c0,0,15.06,68.55,7.15,75.44c-7.91,6.89-161.11,15.94-161.87,4.91
			c-0.77-11.03,95.74-63.88,99.57-75.37C731.86,982.36,783.18,988.87,783.18,988.87z"/>
		<path class="st4" d="M997.65,764.06c0-2.3-143.49-68.17-175.4-41.36c-28.06,23.57-97.97,221.7-114.44,269.19
			c-1.73,5,1.97,10.22,7.27,10.23l73.48,0.19c3.22,0.01,6.11-1.99,7.24-5l65.75-175.38c1.8-4.81,7.71-6.54,11.83-3.48l22.92,17.08
			L997.65,764.06z"/>
	</g>
</g>
<g id="CHAIR">
	<g>
		<g>
			<path class="st15" d="M1097.48,880.61v8.94c0,5.85-4.75,10.59-10.6,10.59h-43.66c-5.85,0-10.59-4.74-10.59-10.59v-8.94
				c0-5.85,4.74-10.59,10.59-10.59h43.66C1092.73,870.02,1097.48,874.76,1097.48,880.61z"/>
			<path class="st16" d="M1089.31,880.61v8.94c0,5.85-4.75,10.59-10.6,10.59h-35.49c-5.85,0-10.59-4.74-10.59-10.59v-8.94
				c0-5.85,4.74-10.59,10.59-10.59h35.49C1084.56,870.02,1089.31,874.76,1089.31,880.61z"/>
			<rect x="1049.35" y="900.14" class="st16" width="31.4" height="48.51"/>
			<path class="st16" d="M1054.13,936.66c0.05-3.48-3.42-5.91-6.67-4.66l-114.92,44.03c-8.64,3.03-14.42,11.18-14.42,20.33v12.82
				c0,5.73,4.64,10.37,10.37,10.37h12.19c5.63,0,10.23-4.49,10.36-10.12l0.21-8.63c0.1-4.05,2.55-7.68,6.28-9.28l93.58-42.27
				c1.73-0.78,2.86-2.5,2.89-4.4L1054.13,936.66z"/>
			<path class="st16" d="M1075.98,936.66c-0.05-3.48,3.42-5.91,6.67-4.66l114.92,44.03c8.64,3.03,14.42,11.18,14.42,20.33v12.82
				c0,5.73-4.64,10.37-10.37,10.37h-12.19c-5.63,0-10.23-4.49-10.36-10.12l-0.21-8.63c-0.1-4.05-2.55-7.68-6.28-9.28l-93.58-42.27
				c-1.73-0.78-2.86-2.5-2.89-4.4L1075.98,936.66z"/>
			<path class="st16" d="M1061.8,933.08h7.54c2.41,0,4.47,1.76,4.85,4.14l11.73,73.76c0.08,0.49,0.12,0.99,0.12,1.48v22.74
				c0,5.22-4.23,9.45-9.45,9.45h-14.81c-5.22,0-9.45-4.23-9.45-9.45v-24.98c0-0.2,0.01-0.4,0.02-0.6l4.54-71.95
				C1057.06,935.1,1059.21,933.08,1061.8,933.08z"/>
			<path class="st15" d="M1080.75,900.14v22.04c-10.59-16.09-25.01-19.18-31.4-19.73v-2.31H1080.75z"/>
		</g>
		<g>
			<path class="st11" d="M954.26,1023.61c0,11.76-9.53,21.28-21.29,21.28c-1.09,0-2.17-0.08-3.22-0.24h-0.02
				c-10.22-1.56-18.05-10.38-18.05-21.03c0-10.65,7.82-19.48,18.05-21.04h0.02c1.05-0.17,2.13-0.24,3.22-0.24
				C944.73,1002.32,954.26,1011.85,954.26,1023.61z"/>
			<path class="st2" d="M947.81,1023.61c0,10.65-7.82,19.48-18.05,21.03h-0.02c-10.22-1.56-18.05-10.38-18.05-21.03
				c0-10.65,7.82-19.48,18.05-21.04h0.02C939.98,1004.13,947.81,1012.96,947.81,1023.61z"/>
		</g>
		<g>
			<path class="st11" d="M1090.47,1047.93c0,11.76-9.53,21.29-21.28,21.29c-0.85,0-1.69-0.05-2.52-0.16
				c-10.57-1.23-18.77-10.22-18.77-21.13c0-10.9,8.19-19.89,18.77-21.12c0.83-0.11,1.67-0.16,2.52-0.16
				C1080.94,1026.65,1090.47,1036.18,1090.47,1047.93z"/>
			<path class="st2" d="M1085.43,1047.93c0,10.9-8.19,19.89-18.76,21.13c-10.57-1.23-18.77-10.22-18.77-21.13
				c0-10.9,8.19-19.89,18.77-21.12C1077.24,1028.05,1085.43,1037.04,1085.43,1047.93z"/>
		</g>
		<g>
			<path class="st11" d="M1218.12,1023.37c0,11.76-9.53,21.29-21.29,21.29c-1.06,0-2.1-0.08-3.12-0.23
				c-10.27-1.51-18.16-10.36-18.16-21.06c0-10.69,7.89-19.54,18.16-21.05c1.02-0.15,2.06-0.23,3.12-0.23
				C1208.59,1002.09,1218.12,1011.62,1218.12,1023.37z"/>
			<path class="st2" d="M1211.86,1023.37c0,10.69-7.89,19.54-18.16,21.06c-10.27-1.51-18.16-10.36-18.16-21.06
				c0-10.69,7.89-19.54,18.16-21.05C1203.98,1003.84,1211.86,1012.69,1211.86,1023.37z"/>
		</g>
		<g>
			<path class="st11" d="M1272.63,623.89c-30.64,71.49-71.73,240.89-177.19,249.3c-108.29,8.64-203.41-5.1-219.87-54.6
				c-0.08-0.21-0.15-0.43-0.21-0.65c0.55,0.48,20.95,17.72,59.22-29.12c38.81-47.49,97.03-115.4,169.54-122.04
				s135.32-110.81,158.29-112.34c8.03-0.53,15.43-0.94,20.36,1.8C1291.96,561.34,1292.56,577.37,1272.63,623.89z"/>
			<path class="st2" d="M1266.5,611.63c-30.64,71.49-102.82,216.53-174.13,234.9c-67.4,17.36-189.61,11.56-216.8-27.94
				c-0.08-0.21-0.15-0.43-0.21-0.65c0.55,0.48,20.95,17.72,59.22-29.12c38.81-47.49,97.03-115.4,169.54-122.04
				s135.32-110.81,158.29-112.34c8.03-0.53,15.43-0.94,20.36,1.8C1283.14,566.39,1278.6,583.39,1266.5,611.63z"/>
		</g>
	</g>
</g>
<g id="PLANT">
	<g>
		<path class="st3" d="M577.97,865.94l-37.01,161.38c-0.67,2.96-3.3,5.04-6.33,5.04H420.32c-1.42,0-2.73-0.45-3.8-1.22
			c-1.31-0.95-2.26-2.39-2.58-4.07L383.6,865.69c-0.75-4,2.32-7.68,6.38-7.68h181.66C575.81,858.01,578.9,861.88,577.97,865.94z"/>
		<path class="st9" d="M577.97,865.94l-37.01,161.38c-0.67,2.96-3.3,5.04-6.33,5.04H420.32c-1.42,0-2.73-0.45-3.8-1.22
			c28.27-4.26,89.18-11.83,105.33-43.1c17.82-34.48,16.84-84.98,9.46-105.63c-7.36-20.64-127.32-24.41-127.32-24.41h5.06h162.6
			C575.81,858.01,578.9,861.88,577.97,865.94z"/>
		<path class="st2" d="M543.48,795.99c1.55,15.15-12.13,43.15-25.26,62.02h-21.4c8.42-33.72,16.84-88.65,21.33-130.46
			c0.39-3.65,0.76-7.2,1.09-10.63c1.88-19.54-2.33-41.12-9.75-62.41c5.66-8.4,11-15.44,15.21-20.43
			c17.73-21.04,39.55-60.3,41.22-62.94c28.69-45.72-11.48,73.03-25.04,119.68c-2.36,8.11-3.9,15.8-4.8,23.11
			c-0.27,2.14-0.49,4.25-0.65,6.32C532.84,751.9,541.46,776.17,543.48,795.99z"/>
		<path class="st2" d="M519.24,716.92c-0.33,3.43-0.69,6.98-1.09,10.63c-4.49,41.73-12.88,96.52-21.29,130.26l-8.73,0.2H465.3
			c5.24-44.9-5.28-88.1-39.74-118.98c0.05-0.24,0.09-0.48,0.13-0.72c5.71-30.27,11.14-67.01-2.32-113.27
			c-19.17-65.94-75.95-233.8-35.39-169.17c2.35,3.75,33.18,59.24,58.26,88.98c16.43,19.51,45.25,61.11,61.46,104.7
			c0.62,1.65,1.21,3.31,1.79,4.97C516.91,675.8,521.12,697.38,519.24,716.92z"/>
		<path class="st2" d="M698.67,742.79c0,0,0-31.04-32.19-40.62c-38.29-11.4-63.91,59.73-74.23,88.49
			c-5.83,16.25-29.1,45.23-49.16,67.35h-24.87c13.13-18.87,26.81-46.87,25.26-62.02c-2.16-21.12-11.79-47.29-7.41-82.06
			c19.89-12.92,45.01-22.96,76.09-29.15C711.28,665.03,698.67,742.79,698.67,742.79z"/>
		<path class="st2" d="M465.3,858.01h-62.27c-18.36-20.2-39.87-46.9-45.22-61.82c-9.4-26.18-32.71-90.91-67.56-80.54
			c-29.31,8.72-29.31,36.97-29.31,36.97s-11.48-70.77,78.74-52.8c37.77,7.53,65.85,21.3,85.87,39.21
			C460.02,769.91,470.53,813.11,465.3,858.01z"/>
		<path d="M478.28,858.01h-12.35c5.24-44.9-5.91-88.1-40.38-118.98c0.05-0.24,0.09-0.48,0.13-0.72
			C425.69,738.31,482,785.31,478.28,858.01z"/>
		<path class="st17" d="M440.37,858.01c0,0-11.45-70.57-56.88-112.75c-40.11-37.24-117.01-71.33-122.7,6.13"/>
		<path d="M506.4,857.6l-9.54,0.21c8.4-33.74,16.8-88.53,21.29-130.26c0.39-3.65,0.76-7.2,1.09-10.63
			c1.88-19.54-2.33-41.12-9.75-62.41c-0.58-1.66-1.17-3.32-1.79-4.97c4.68,8.54,19.65,56.23,17.55,78.39
			C514.11,844.97,506.4,857.6,506.4,857.6z"/>
		<path d="M552.78,809.57c-2.09,8.09-21.13,37.2-33.15,48.44h-1.42c13.13-18.87,26.81-46.87,25.26-62.02
			c-2.02-19.82-10.64-44.09-8.06-75.75c2.26,14.74,5.74,35.65,8.18,42.79C547.54,774.51,555.08,800.73,552.78,809.57z"/>
		<path class="st18" d="M374.92,441.51c0,0,79.21,175.52,96.41,230.75c17.12,54.96-4.77,123.03-4.77,123.03"/>
		<path class="st19" d="M521.97,713.06c-1.47-0.98,9.83-58.33,52.89-152.19"/>
		<path class="st17" d="M543.61,772.54c-0.49-2.46,41.79-63.11,84.88-78.17c21.1-7.37,33.6-5.41,42.45,0
			c8.85,5.41,27,21.82,28.25,42.87"/>
	</g>
</g>
</svg>
