<?xml version="1.0" encoding="utf-8"?>
<!-- Generator: Adobe Illustrator 25.2.0, SVG Export Plug-In . SVG Version: 6.00 Build 0)  -->
<svg version="1.1" xmlns="http://www.w3.org/2000/svg" xmlns:xlink="http://www.w3.org/1999/xlink" x="0px" y="0px"
	 viewBox="0 0 1600 1200" style="enable-background:new 0 0 1600 1200;" xml:space="preserve">
<style type="text/css">
	.st0{fill:#D7ECFF;}
	.st1{fill:#4D7199;}
	.st2{fill:#AAC5E2;}
	.st3{fill:#264663;}
	.st4{fill:none;stroke:#4D7199;stroke-width:2;stroke-linecap:round;stroke-miterlimit:10;}
	.st5{fill:#FFB085;}
	.st6{fill:#BC7A5C;}
	.st7{fill:#FFAD9F;}
	.st8{fill:#AA4437;}
	.st9{fill:none;stroke:#000000;stroke-width:2;stroke-linecap:round;stroke-miterlimit:10;}
	.st10{fill:#F9D5A7;}
	.st11{fill:#CEA980;}
	.st12{fill:none;stroke:#AA4437;stroke-width:2;stroke-linecap:round;stroke-miterlimit:10;}
</style>
<g id="BACKGROUND_2">
	<path class="st0" d="M250.14,1074.6c0,0-331.12-260.92-79.75-482.44s319.51-376.52,371-426.83s326.98-252.68,529.95,155.74
		c108.7,172.76,245.26,171.48,313.4,244.65c68.14,73.17,191.16,452.72-80.25,503.19C980,1129.26,250.14,1074.6,250.14,1074.6z"/>
</g>
<g id="DART_BOARD">
	<g>
		<circle class="st1" cx="554.69" cy="645.91" r="402.91"/>
		<circle class="st2" cx="554.69" cy="651.06" r="352.38"/>
		<circle class="st1" cx="554.69" cy="651.06" r="282.96"/>
		<circle class="st2" cx="554.69" cy="658.08" r="214.47"/>
		<circle class="st1" cx="554.69" cy="658.08" r="158.8"/>
		<circle class="st2" cx="554.69" cy="666.2" r="66.6"/>
	</g>
</g>
<g id="LEAVES">
	<g>
		<g>
			<path class="st3" d="M271.73,872.35c0,0-1.78-175.29-218.19-194.51C53.54,677.85,26.3,879.68,271.73,872.35z"/>
			<path class="st4" d="M271.69,871.13c0,0-175.38-137.61-216.47-191.14"/>
			<line class="st4" x1="207.21" y1="819.17" x2="198.5" y2="730.23"/>
			<line class="st4" x1="162.18" y1="781.54" x2="70.72" y2="778.1"/>
		</g>
		<g>
			<path class="st3" d="M202.31,933.23c0,0-45.07-108.25-184.08-65.88C18.23,867.35,51.96,999.33,202.31,933.23z"/>
			<path class="st4" d="M198.5,932.07c0,0-143.23-35.5-178.19-62.54"/>
			<line class="st4" x1="153.45" y1="919.1" x2="138.91" y2="870.2"/>
			<path class="st4" d="M107.44,907.63c0,0-23.49,13.93-51.91,18.91"/>
			<line class="st4" x1="51.31" y1="860.79" x2="56.23" y2="887.14"/>
		</g>
		<g>
			<path class="st3" d="M696.57,1087.72c0,0,213,78.89,336.33-174.17C1032.9,913.55,801.19,787.26,696.57,1087.72z"/>
			<path class="st4" d="M1017.69,917.6c0,0-202.81,84.26-249.88,127.55"/>
			<line class="st4" x1="837.65" y1="1003.1" x2="940.32" y2="1037.93"/>
			<line class="st4" x1="781.71" y1="944.09" x2="774.3" y2="1037.93"/>
			<path class="st4" d="M945.89,888.45c0,0-13.94,58.06-17.23,68.22"/>
		</g>
		<g>
			<path d="M643.59,1104.54c-2.17-5.6-4.15-11.08-5.94-16.43c-61.41-183.55,95.15-221.6,103.78-223.55
				c0.25-0.06,0.37-0.09,0.37-0.09C789.71,1051.22,643.59,1104.54,643.59,1104.54z"/>
			<path class="st3" d="M636.86,1085.72c-1.87-5.73-3.53-11.33-5-16.78c-6-22.52-8.56-42.65-8.44-60.62
				c0.6-102.77,88.03-135.23,112.23-142.23C757.62,1009.17,677.24,1066.37,636.86,1085.72z"/>
			<path class="st4" d="M730.8,872.55c0,0-69.06,138.38-76.34,172.6"/>
			<line class="st4" x1="667.2" y1="1013.47" x2="723.28" y2="993.28"/>
			<line class="st4" x1="689.4" y1="958.85" x2="674.83" y2="897.8"/>
			<path class="st4" d="M657.48,1034.61c0,0-26.69-47.74-29.96-62.67"/>
		</g>
		<g>
			<path class="st3" d="M626.13,1063.91c-2.2-0.44-4.32-0.92-6.38-1.43c-73.83-18.54-55.79-85.85-55.79-85.85
				c21.11,4.64,36.55,12.4,47.82,21.45c2.11,1.7,4.08,3.44,5.9,5.22C617.57,1021.27,620.13,1041.4,626.13,1063.91z"/>
			<path d="M631.86,1068.93c-2.2-0.44-4.32-0.92-6.38-1.43c-6.32-24.14-8.64-45.51-7.97-64.4c2.11,1.7,4.08,3.44,5.9,5.22
				C623.3,1026.29,625.86,1046.42,631.86,1068.93z"/>
			<line class="st4" x1="574.03" y1="996.11" x2="615.5" y2="1044.04"/>
			<line class="st4" x1="614.3" y1="1000.19" x2="610.05" y2="1037.75"/>
			<line class="st4" x1="594.07" y1="1020.27" x2="568.59" y2="1025.04"/>
		</g>
		<g>
			<path d="M510.29,1084.38c-1.31-3.36-2.48-6.64-3.54-9.84c-36.21-108.66,58.39-129.91,60.88-130.45c0.03-0.01,0.05-0.01,0.05-0.01
				C595.69,1053.21,510.29,1084.38,510.29,1084.38z"/>
			<path class="st3" d="M506.74,1074.54c-36.21-108.66,58.39-129.91,60.88-130.45C581.29,1032.06,529.2,1064.72,506.74,1074.54z"/>
			<path class="st4" d="M565.97,946.54c0,0-43.83,49.57-50.11,103.1"/>
			<line class="st4" x1="553.96" y1="1032.3" x2="518.73" y2="1037.75"/>
			<line class="st4" x1="528.7" y1="1003.44" x2="524.19" y2="969.21"/>
		</g>
		<g>
			<path class="st3" d="M512.85,1066.67c0,0-32.9-179.34-258.1-160.67C254.75,906,262.61,1117.68,512.85,1066.67z"/>
			<path class="st4" d="M256.39,905.87c0,0,200.72,128.31,224.75,147.04"/>
			<line class="st4" x1="443.43" y1="954.94" x2="446.88" y2="1029.32"/>
			<line class="st4" x1="395.98" y1="995.88" x2="337.6" y2="1006.43"/>
			<line class="st4" x1="340.22" y1="958.83" x2="336.18" y2="908.39"/>
		</g>
		<g>
			<path d="M383.8,1097.78c-4.7,0.41-9.26,0.71-13.7,0.91c-150.02,6.6-158.52-106.14-158.49-132.13c0-3.39,0.15-5.29,0.15-5.29
				C374.92,966.37,383.8,1097.78,383.8,1097.78z"/>
			<path class="st3" d="M370.1,1098.69c-150.02,6.6-158.52-106.14-158.49-132.13c0.3-3.08,0.59-4.8,0.59-4.8
				C340.88,977.52,365.44,1063.83,370.1,1098.69z"/>
			<path class="st4" d="M214.04,964.11c0,0,95.2,96.74,96.49,103.54"/>
			<line class="st4" x1="288.16" y1="1041.26" x2="230.33" y2="1038.12"/>
			<line class="st4" x1="255.55" y1="1006.43" x2="254.01" y2="970.22"/>
		</g>
	</g>
</g>
<g id="BACKGROUND_1">
	<ellipse class="st2" cx="803.29" cy="1087.2" rx="556.42" ry="42.06"/>
</g>
<g id="DART_ARROW">
	<g>
		<path class="st3" d="M268.24,520.97l5.91-10.37l224.44,121.47c0,0,47.93,30.06,55.84,41.9c7.91,11.84-70.13-21.64-70.13-21.64
			L268.24,520.97z"/>
		<polygon class="st3" points="270.76,520.58 180.57,526.91 138.72,503.07 125.45,468.47 171.54,456.72 162.2,408.79 199.77,406.37 
			235.05,426.47 275.9,511.55 		"/>
	</g>
</g>
<g id="PAPER">
	<g>
		<path class="st2" d="M1261.93,471.63c0,0,31.68-73.62,72.1-89.79l71.01,27.71c0,0-63.36,49.55-71.55,77.4L1261.93,471.63z"/>
		<path class="st2" d="M1426.81,287.96c0,0,51.69-61.25,95.06-64.99l59.91,47.13c0,0-75.01,29.02-90.94,53.3L1426.81,287.96z"/>
		<path class="st2" d="M1450.92,476.66c0,0,90.67-51.24,101.59-86.52l-73.19-17.8c0,0-48.07,61.13-79.75,66.07L1450.92,476.66z"/>
	</g>
</g>
<g id="MALE">
	<g>
		<g>
			<path d="M882.76,902.59c0,0,18.68,46.97,22.5,56.26c3.82,9.29-109.79,60.08-117.43,50.8s66.09-84.12,67.73-95.04
				S882.76,902.59,882.76,902.59z"/>
			<path class="st5" d="M1001.4,729.44c-17.48,16.39-162.36,21.85-162.36,21.85s58.03,157.85,55.3,160.58
				c-2.73,2.74-49.71,12.02-49.71,12.02c-13.1-11.48-92.3-218.49-86.84-229.41c5.47-10.92,114.15-26.76,179.7-41.51
				c4.1-0.93,7.99-1.5,11.7-1.74c11.83-0.83,21.71,1.53,29.81,5.9c16.34,8.82,25.35,25.85,28.09,41.5
				C1009.39,711.76,1007.29,723.92,1001.4,729.44z"/>
			<path class="st6" d="M1001.4,729.44c-17.48,16.39-162.36,21.85-162.36,21.85s72.78-38.78,77.74-100.23
				c0.78-9.63,27.7,3.37,32.41,0.17c10.04-6.85,20.32-2.95,29.81,5.9c10.92,10.17,20.79,26.92,28.09,41.5
				C1009.39,711.76,1007.29,723.92,1001.4,729.44z"/>
		</g>
		<g>
			<path d="M1189.84,984.52c0,0,37.14,40.97,37.69,51.34c0.55,10.38-46.43,35.5-62.27,37.69s-62.27,5.46-56.81-6.01
				c5.46-11.47,56.91-33.86,59.32-42.6c2.4-8.74,0-27.31,0-27.31L1189.84,984.52z"/>
			<path class="st5" d="M905.26,659.53c0,0,68.82,103.78,81.38,117.98c12.56,14.2,172.05,235.96,172.05,235.96l46.97-26.22
				c0,0-191.72-370.33-206.47-379.07C984.46,599.44,905.26,659.53,905.26,659.53z"/>
		</g>
		<g>
			<path d="M845.36,420.29c0,0,54.62-32.77,58.63-73.92s-17.48-73.5-58.63-73.19c-26.16,0.19-64.45,13.47-63,35.32
				S845.36,420.29,845.36,420.29z"/>
			<path class="st7" d="M870.85,451.43l-26.22,15.29l-8.2-11.81l-16.08-23.15c0,0,23.19-25.49,26.84-18.21
				c0.39,0.77,0.95,1.8,1.66,3.03C854.83,426.95,870.85,451.43,870.85,451.43z"/>
			<path class="st8" d="M848.84,416.58c-2.57,13.74-6.89,32.04-12.42,38.33l-16.08-23.15c0,0,23.19-25.49,26.84-18.21
				C847.57,414.32,848.14,415.35,848.84,416.58z"/>
			<path class="st7" d="M852.64,401.72c-5.09,25.85-39.68,40.79-62.99,41.88c-23.31,1.09-18.68-42.6-20.49-44.8
				c-0.01-0.02-0.03-0.03-0.05-0.05c-1.9-2.2-10.87-6.9-11.23-12.32c-0.02-0.25-0.01-0.48,0.01-0.72c0.41-5.04,8.64-8.02,8.64-8.02
				c-1.64-52.8,16.93-75.74,16.93-75.74c20.02,61.9,69.18,76.11,69.18,76.11c-0.73-8.38,20.76-21.12,25.85-5.27
				C883.73,389.03,852.64,401.72,852.64,401.72z"/>
			<path class="st8" d="M856.47,381.51c0,0,8.37-15.84,14.38-11.11c6.01,4.73-4,20.03-12.01,23.3
				C850.82,396.98,856.47,381.51,856.47,381.51z"/>
			<ellipse cx="781.46" cy="370.82" rx="3.28" ry="11.02"/>
			<path class="st9" d="M776.9,354.27c0,0,4.73-6.81,10.74,2.11"/>
			<path class="st9" d="M771.44,412.66c0,0,9.11,3.8,18.58-3.12"/>
			<path class="st8" d="M769.1,398.75c-1.9-2.2-10.87-6.9-11.23-12.32c-0.02-0.25-0.01-0.48,0.01-0.72
				c4.18,3.03,11.39,7.9,14.65,8.09C775.36,393.96,772.14,396.63,769.1,398.75z"/>
		</g>
		<g>
			<path class="st3" d="M1302.8,615.72L1136.49,726.6c-3.52,2.35-8.28,1.4-10.62-2.12l-78.77-118.15l179.06-119.37l78.77,118.15
				C1307.27,608.62,1306.32,613.37,1302.8,615.72z"/>
			<path class="st1" d="M1236.85,563.19l-122.01,81.34c-2.73,1.82-6.27,1.84-9.02,0.05l-58.72-38.26l179.06-119.37l14.17,67.75
				C1241.01,557.97,1239.63,561.33,1236.85,563.19z"/>
			<path class="st3" d="M1151.16,501.49l16.36,24.54l-9.83,6.56l-10.38-15.57c-2.34-3.51-7.09-4.46-10.6-2.12l-27.14,18.1
				c-3.51,2.34-4.46,7.09-2.12,10.6l10.38,15.57l-9.83,6.56l-16.36-24.54c-2.34-3.51-1.39-8.26,2.12-10.6l46.81-31.21
				C1144.08,497.03,1148.82,497.98,1151.16,501.49z"/>
			<circle class="st3" cx="1114.17" cy="628.4" r="7.78"/>
			<circle class="st3" cx="1224.6" cy="554.78" r="7.78"/>
		</g>
		<path class="st10" d="M1127.02,490.2c0,0-37.14,23.49-39.87,21.85c-2.74-1.65-41.61-59.12-44.34-64.2
			c-2.74-5.08-94.41,23.78-96.59,29.24c-0.33,0.81,0.89,4.33,3.19,9.74c0.64,1.51,1.37,3.17,2.17,4.95
			c0.01,0.02,0.02,0.05,0.03,0.07c0.18,0.43,0.37,0.86,0.58,1.28c15.99,35.42,58.26,117.13,57.4,125.41
			c-1.1,10.38-33.32,23.49-69.38,40.97c-36.05,17.48-35.75,8.19-46.42-15.84c-7.07-25.98-23.54-50.54-40.35-72.37
			c-16.74-21.77-33.8-40.83-42.2-55.91c-5.32-9.56-7.15-17.53-3.21-23.56c12.73-19.52,68.34-46.96,93.52-56.94
			c7.23-2.87,11.96-4.3,12.44-3.69c0,0,134.37-32.23,144.75-31.13C1069.13,401.17,1127.02,490.2,1127.02,490.2z"/>
		<g>
			<path class="st8" d="M1092.34,504.4c0,0,8.98,30.82,14.05,33.16c5.07,2.34,37.26-9.83,37.41-16.58
				c0.16-6.75-24.03-32.1-25.73-34.04C1116.37,485.01,1092.34,504.4,1092.34,504.4z"/>
			<path class="st11" d="M1127.02,490.2c0,0-37.14,23.49-39.87,21.85c-2.74-1.65-41.61-59.12-44.34-64.2
				c-2.74-5.08-94.41,23.78-96.59,29.24c-0.33,0.81,0.89,4.33,3.19,9.74c-19.94-43.83-46.39-51.8-47.97-51.8l0.12-0.14
				c7.23-2.87,11.96-4.3,12.44-3.69c0,0,134.37-32.23,144.75-31.13C1069.13,401.17,1127.02,490.2,1127.02,490.2z"/>
		</g>
		<g>
			<path class="st7" d="M668.21,464.35c0,0,5.46-19.15,6.55-27.24c1.09-8.08-7.65-27.82-14.2-27.24c-6.55,0.58,0,14.24,0,20.79
				c0,6.55-16.93-34.96-25.67-33.86c-8.74,1.09-24.58,16.39-19.12,36.6c5.46,20.21,33.32,46.43,33.32,46.43L668.21,464.35z"/>
			<path class="st11" d="M853.44,571.31c-16.74-21.77-33.8-40.83-42.2-55.91c5.26-13.01,18.41-27.88,29.31-17.08
				C857.56,515.15,853.02,548.69,853.44,571.31z"/>
			<path class="st10" d="M640.9,477.64c0,0,69.37,117.98,79.2,121.8s120.17-65,125.63-77.01c5.46-12.02-12.56-58.08-51.34-19.66
				c-48.07,35.85-60.63,46.43-60.63,46.43l-58.44-93.95C675.31,455.24,643.08,467.26,640.9,477.64z"/>
			<path class="st12" d="M628.88,400.06c0,0,17.11,30.97,19.48,34.25"/>
			<path class="st12" d="M620.07,407.38c0,0,17.11,30.97,19.48,34.25"/>
			<path class="st12" d="M615.65,418.98c0,0,13.6,26.8,15.96,30.07"/>
		</g>
	</g>
</g>
</svg>
