<?xml version="1.0" encoding="utf-8"?>
<!-- Generator: Adobe Illustrator 25.2.0, SVG Export Plug-In . SVG Version: 6.00 Build 0)  -->
<svg version="1.1" xmlns="http://www.w3.org/2000/svg" xmlns:xlink="http://www.w3.org/1999/xlink" x="0px" y="0px"
	 viewBox="0 0 1600 1200" style="enable-background:new 0 0 1600 1200;" xml:space="preserve">
<style type="text/css">
	.st0{fill:#D7ECFF;}
	.st1{fill:#90AACB;}
	.st2{fill:#94CBED;}
	.st3{fill:none;stroke:#7898B5;stroke-width:2;stroke-linecap:round;stroke-miterlimit:10;}
	.st4{fill:#7898B5;}
	.st5{fill:#4D7199;}
	.st6{fill:#F9D5A7;}
	.st7{fill:#CEA980;}
	.st8{fill:#FFAD9F;}
	.st9{fill:#AA4437;}
	.st10{fill:none;stroke:#000000;stroke-width:2;stroke-linecap:round;stroke-miterlimit:10;}
	.st11{fill:#FFB085;}
	.st12{fill:#375A7A;}
</style>
<g id="BACKGROUND">
	<g>
		<path class="st0" d="M284.18,1064.4c0,0-280.28-164.61,31.14-444.89c84.53-84.53,235.79-75.63,587.25-435.99
			c111.22-97.88,404.85-240.24,507.17,133.47c26.69,231.34-13.44,411.36-14.34,477.51c-0.63,46.44,103.81,226.4-39.05,269.9
			C1226.92,1103.81,284.18,1064.4,284.18,1064.4z"/>
		<ellipse class="st1" cx="790.7" cy="1070.85" rx="525.96" ry="52.15"/>
	</g>
</g>
<g id="LEAVES">
	<g>
		<g>
			<path class="st2" d="M1112.24,1035.92c0,0,0.73-72.2,50.55-141.32c4.32-6,9.01-11.97,14.1-17.87
				c27.98-32.43,68.06-62.67,125.49-82.57c6.79-2.37,13.83-4.58,21.13-6.63c24.99-7.04,52.93-12.22,84.18-14.99
				C1407.69,772.54,1444.58,1045.84,1112.24,1035.92z"/>
			<path class="st3" d="M1112.29,1034.26c0,0,237.48-186.34,293.13-258.82"/>
			<line class="st3" x1="1199.6" y1="963.9" x2="1211.39" y2="843.47"/>
			<line class="st3" x1="1260.57" y1="912.95" x2="1384.42" y2="908.29"/>
		</g>
		<path class="st4" d="M1323.51,787.53c-34.67,38.58-86.1,75.47-160.72,107.07c-0.11,0.05-0.21,0.09-0.32,0.14
			c0,0-1.55-3.48-3.82-9.9c6.25-2.67,12.32-5.37,18.24-8.11c27.98-32.43,68.06-62.67,125.49-82.57
			C1309.17,791.79,1316.21,789.58,1323.51,787.53z"/>
	</g>
	<g>
		<path class="st2" d="M651.17,885.59c0,0-228.94,62.7-334.24-211.99C316.92,673.59,569.66,563.24,651.17,885.59z"/>
		<path class="st3" d="M649.56,885.99c0,0-244.27-177.35-329.23-211.01"/>
		<line class="st3" x1="557.97" y1="821.29" x2="438.92" y2="842.95"/>
		<line class="st3" x1="492.27" y1="776.61" x2="453.86" y2="658.78"/>
	</g>
	<g>
		<path class="st2" d="M1118.69,896.31c0,0,235.19-32.12,224.31-326.11C1343,570.2,1067.23,567.83,1118.69,896.31z"/>
		<path class="st3" d="M1120.33,896.05c0,0,155.13-258.95,220.08-323.23"/>
		<line class="st3" x1="1179.2" y1="800.61" x2="1297.2" y2="773.83"/>
		<line class="st3" x1="1222.11" y1="733.74" x2="1211.23" y2="610.28"/>
	</g>
	<g>
		<path class="st2" d="M654.59,619.9c0,0-206.44,1.52-233.54-252.9C421.05,367,658.15,330.76,654.59,619.9z"/>
		<path class="st3" d="M653.15,619.88c0,0-165.66-203.66-229.54-250.95"/>
		<line class="st3" x1="590.63" y1="545.03" x2="485.73" y2="536.62"/>
		<line class="st3" x1="545.4" y1="492.79" x2="539.46" y2="385.16"/>
	</g>
	<g>
		<path class="st2" d="M465.3,598.44c0,0-160.42,34.93-223.09-158.66C242.2,439.78,420.8,372.81,465.3,598.44z"/>
		<path class="st3" d="M464.17,598.66c0,0-162.22-131.43-219.66-157.79"/>
		<line class="st3" x1="403.28" y1="550.62" x2="320.26" y2="561.21"/>
		<line class="st3" x1="359.53" y1="517.35" x2="337.32" y2="434.56"/>
	</g>
</g>
<g id="BOARD_LIST">
	<g>
		<g>
			<path class="st5" d="M1128.09,1044.57H666.73c-17.61,0-31.89-14.28-31.89-31.89V313.35c0-17.61,14.28-31.89,31.89-31.89h461.36
				c17.61,0,31.89,14.28,31.89,31.89v699.32C1159.98,1030.29,1145.71,1044.57,1128.09,1044.57z"/>
			<path class="st0" d="M1098.47,1005.61H696.36c-17.61,0-31.89-14.28-31.89-31.89V360.5c0-17.61,14.28-31.89,31.89-31.89h402.11
				c17.61,0,31.89,14.28,31.89,31.89v613.22C1130.36,991.33,1116.08,1005.61,1098.47,1005.61z"/>
		</g>
		<path class="st1" d="M1050.78,309.15v27.37c0,9.83-7.97,17.81-17.81,17.81h-264.1c-9.83,0-17.81-7.97-17.81-17.81v-27.37
			c0-33.59,27.23-60.81,60.81-60.81h25.62c3.6,0,6.52-2.92,6.52-6.52v-6.08c0-36.23,29.37-65.59,65.59-65.59h0
			c36.23,0,65.59,29.37,65.59,65.59v6.08c0,3.6,2.92,6.52,6.52,6.52h8.25C1023.55,248.33,1050.78,275.56,1050.78,309.15z"/>
		<g>
			<g>
				<path class="st1" d="M790.54,469.82l-48.17,49.77c-2.75,2.84-7.3,2.89-10.11,0.11l-31.98-31.64c-3.9-3.86-3.94-10.15-0.08-14.06
					l0,0c3.86-3.9,10.15-3.94,14.06-0.08l22.96,22.71l39.03-40.6c3.84-3.99,10.2-4.07,14.13-0.18l0,0
					C794.26,459.69,794.33,465.92,790.54,469.82z"/>
				<path class="st1" d="M1089.31,472.2H831.95c-4.51,0-8.17-3.66-8.17-8.17v0c0-4.51,3.66-8.17,8.17-8.17h257.36
					c4.51,0,8.17,3.66,8.17,8.17v0C1097.48,468.55,1093.83,472.2,1089.31,472.2z"/>
				<path class="st1" d="M1089.31,511.52H831.95c-4.51,0-8.17-3.66-8.17-8.17v0c0-4.51,3.66-8.17,8.17-8.17h257.36
					c4.51,0,8.17,3.66,8.17,8.17v0C1097.48,507.87,1093.83,511.52,1089.31,511.52z"/>
				<path class="st1" d="M1089.31,550.84H831.95c-4.51,0-8.17-3.66-8.17-8.17l0,0c0-4.51,3.66-8.17,8.17-8.17h257.36
					c4.51,0,8.17,3.66,8.17,8.17l0,0C1097.48,547.19,1093.83,550.84,1089.31,550.84z"/>
			</g>
			<g>
				<path class="st1" d="M766.98,724.51h-46.27c-9.42,0-17.05-7.63-17.05-17.05v-46.27c0-9.42,7.64-17.05,17.05-17.05h46.27
					c9.42,0,17.05,7.63,17.05,17.05v46.27C784.03,716.88,776.4,724.51,766.98,724.51z"/>
				<path class="st1" d="M1089.31,655.67H831.95c-4.51,0-8.17-3.66-8.17-8.17l0,0c0-4.51,3.66-8.17,8.17-8.17h257.36
					c4.51,0,8.17,3.66,8.17,8.17l0,0C1097.48,652.02,1093.83,655.67,1089.31,655.67z"/>
				<path class="st1" d="M1089.31,694.99H831.95c-4.51,0-8.17-3.66-8.17-8.17l0,0c0-4.51,3.66-8.17,8.17-8.17h257.36
					c4.51,0,8.17,3.66,8.17,8.17l0,0C1097.48,691.33,1093.83,694.99,1089.31,694.99z"/>
				<path class="st1" d="M1013.23,734.31H831.95c-4.51,0-8.17-3.66-8.17-8.17l0,0c0-4.51,3.66-8.17,8.17-8.17h181.28
					c4.51,0,8.17,3.66,8.17,8.17l0,0C1021.4,730.65,1017.74,734.31,1013.23,734.31z"/>
			</g>
			<g>
				<path class="st1" d="M766.98,909.91h-46.27c-9.42,0-17.05-7.63-17.05-17.05v-46.27c0-9.42,7.64-17.05,17.05-17.05h46.27
					c9.42,0,17.05,7.63,17.05,17.05v46.27C784.03,902.27,776.4,909.91,766.98,909.91z"/>
				<path class="st1" d="M1089.31,848.55H831.95c-4.51,0-8.17-3.66-8.17-8.17v0c0-4.51,3.66-8.17,8.17-8.17h257.36
					c4.51,0,8.17,3.66,8.17,8.17v0C1097.48,844.89,1093.83,848.55,1089.31,848.55z"/>
				<path class="st1" d="M963.19,887.87H831.95c-4.51,0-8.17-3.66-8.17-8.17v0c0-4.51,3.66-8.17,8.17-8.17h131.23
					c4.51,0,8.17,3.66,8.17,8.17v0C971.36,884.21,967.7,887.87,963.19,887.87z"/>
				<path class="st1" d="M1089.31,887.87h-83.74c-4.51,0-8.17-3.66-8.17-8.17l0,0c0-4.51,3.66-8.17,8.17-8.17h83.74
					c4.51,0,8.17,3.66,8.17,8.17l0,0C1097.48,884.21,1093.83,887.87,1089.31,887.87z"/>
				<path class="st1" d="M1013.23,927.19H831.95c-4.51,0-8.17-3.66-8.17-8.17l0,0c0-4.51,3.66-8.17,8.17-8.17h181.28
					c4.51,0,8.17,3.66,8.17,8.17l0,0C1021.4,923.53,1017.74,927.19,1013.23,927.19z"/>
			</g>
		</g>
	</g>
</g>
<g id="MALE">
	<g>
		<g>
			<path class="st6" d="M586.98,764.94c0,0-23.99,3.04-39.31,80.66c-15.32,77.62,32.34,80,32.34,80S597.98,763.92,586.98,764.94z"/>
			<path class="st7" d="M582.99,791.38c0,0-9.37,72-45.63,90.13c-36.26,18.13,37.03,62.55,37.03,62.55L582.99,791.38z"/>
			<path class="st6" d="M710.33,965.15c-9.52,40.75-18.89,71.93-21.94,75.23c-0.29,0.32-0.73,0.57-1.3,0.75
				c-17.38,5.65-159.38-47.63-159.38-47.63s64.13-92.22,54.28-226.26c0,0,29.66-18.01,52.4-23.49c22.74-5.47,39.62-6.21,84.81,8.26
				C749.42,761.69,729.56,882.91,710.33,965.15z"/>
			<path class="st7" d="M710.43,761.16c0,0-14.51,5.97-20.63,42.48c-7.21,42.98,4.26,89.02-0.51,103.66
				c-4.77,14.64-34.98,21.45-91.25,28.99l131.76,14.53L710.43,761.16z"/>
			<path class="st6" d="M621.88,974.96c0,0,85.79,17.02,142.98-15.66c10.55-8.48-19.06-221.11-48.34-202.64
				c-29.28,18.47-22.47,52.51-12.6,86.89c9.87,34.38,17.02,81.02,16.34,84.09c-0.68,3.06-99.4,3.06-119.11,10.89L621.88,974.96z"/>
			<path class="st8" d="M572.09,966.02c0,0,11.74-32.68,32.68-30.13c20.94,2.55,27.74,15.25,24.77,30.13
				C625.97,983.9,572.09,966.02,572.09,966.02z"/>
		</g>
		<g>
			<path class="st8" d="M661.43,742c0,0-0.23,9.3-13.34,13.72c-10,3.38-14.94-3.19-16.72-6.5c-0.56-1.03-0.81-1.75-0.81-1.75
				l-13.78-20.68c0,0,15.81-34.45,18.62-30.45c0.75,1.08,2.98,4.87,5.84,9.85C649.01,719.73,661.43,742,661.43,742z"/>
			<path class="st9" d="M641.24,706.19c-0.3,14.52-2.27,33.6-9.87,43.03c-0.56-1.03-0.81-1.75-0.81-1.75l-13.78-20.68
				c0,0,15.81-34.45,18.62-30.45C636.15,697.42,638.38,701.21,641.24,706.19z"/>
			<path d="M538.14,707.38c0,0-42.38-66.89,11.23-107.23c53.62-40.34,119.62,23.88,98.04,74.72
				C625.84,725.7,538.14,707.38,538.14,707.38z"/>
			<path class="st8" d="M535.89,703.45c0,0,29.31,66.23,66.59,49.38c14.3-7.66,28.6-31.66,31.66-51.57c0,0,6.64,2.55,12.26-11.74
				c5.62-14.3-3.57-33.19-15.32-12.26c0,0-36.26-11.23-80.17-46.98C550.9,630.28,526.7,658.52,535.89,703.45z"/>
			<ellipse transform="matrix(0.9531 -0.3025 0.3025 0.9531 -185.1567 200.2135)" cx="553.78" cy="697.85" rx="5.79" ry="10.55"/>
			<ellipse transform="matrix(0.9531 -0.3025 0.3025 0.9531 -180.6249 209.05)" cx="584.57" cy="687.64" rx="5.79" ry="10.55"/>
			<path class="st10" d="M539.84,685.6c0,0,3.38-13.96,15.31-5.45"/>
			<path class="st10" d="M571.96,676.11c0,0,3.38-13.96,15.31-5.45"/>
			<path class="st10" d="M566.48,691.43l7.4,18.64c0,0-4.72-0.26-5.62,3.45c-0.89,3.7,5.74,11.23,8.68,7.79"/>
			<path class="st10" d="M573.62,734.7c0,0,19.53,9.29,26.94-12.52"/>
			<path class="st9" d="M636.18,681.21c0.26-0.54,4.88-11.26,6.97-8.84c2.09,2.43,6.26,15.7-3.49,21.06S636.18,681.21,636.18,681.21
				z"/>
		</g>
		<g>
			<g>
				<path d="M558.05,1079.64c0,0,30.13,52.6,42.89,46.47c12.77-6.13,31.4-15.99,15.83-40.34c-15.57-24.35-66.89-33.7-66.89-33.7
					L558.05,1079.64z"/>
				<g>
					<path class="st9" d="M458.48,978.36c0,0,83.7,130.98,212.45,76.68c50.72-21.39,7.16-113.07-3.77-96.42
						C640.57,999.08,458.48,978.36,458.48,978.36z"/>
					<path class="st11" d="M577.15,1056.2l-1.77,2.84l-2.62,4.19l-0.23,0.36l-12.32,19.7l-0.3,0.48c0,0-6.17-1.98-21.22-8.81
						c-11.98-5.43-29.57-13.93-54.13-26.95c-10.16-5.38-21.52-11.53-34.16-18.56c-81.6-45.35-62.15-67.6-23.75-77.95
						c15.18-4.09,42.34,10.71,69.62,30.09c14.65,10.42,29.33,22.15,42.21,32.98c10.89,9.17,20.5,17.7,27.73,24.25L577.15,1056.2z"/>
				</g>
			</g>
			<path class="st9" d="M580.01,1060.73l-7.25,2.5l-0.69,0.24l-17.07,5.88l-16.31,5.61c-11.98-5.43-29.57-13.93-54.13-26.95
				c6.36-4.18,15.64-10,25.14-15.87c10.59-6.54,21.44-13.13,28.78-17.57c10.89,9.17,20.5,17.7,27.73,24.25l10.94,17.38
				L580.01,1060.73z"/>
		</g>
	</g>
</g>
<g id="LAPTOP">
	<g>
		<polygon class="st12" points="633.76,997.22 568.71,982.62 569.79,962.77 634.84,977.37 		"/>
		<path class="st5" d="M569.41,982.66l-156.4-8.54c-2.01-0.11-3.54-1.82-3.43-3.83l0.89-16.22l160.03,8.74L569.41,982.66z"/>
		<polygon points="412.01,973.92 498.82,986.44 638.69,996.15 568.71,982.62 		"/>
		<path class="st1" d="M571.55,962.85l-161.05-7.9l-3.26-107.15c-0.17-5.46,4.08-10.04,9.54-10.28l147.18-6.59
			c5.78-0.26,10.57,4.43,10.43,10.21L571.55,962.85z"/>
	</g>
</g>
<g id="UPPER_FOOT">
	<g>
		<path d="M506.48,1046.96c0,0-81.19,20.43-80.68,46.47c0.51,26.04,31.51,37.79,96.44-17.87
			C587.16,1019.9,506.48,1046.96,506.48,1046.96z"/>
		<path class="st11" d="M498.82,1045.94l17.36,33.7c0,0,153.7-42.38,164.43-80.68c10.72-38.3,1.53-66.38-79.15-19.4
			C520.77,1026.53,498.82,1045.94,498.82,1045.94z"/>
	</g>
</g>
</svg>
